#N canvas 1042 154 450 475 12;
#X obj 169 39 adc~;
#X obj 110 97 dac~ 27;
#X obj 221 94 adc~ 4;
#X obj 221 132 lop~ 10;
#X obj 221 169 *~ 200;
#X obj 221 274 *~;
#X obj 276 249 adc~ 3;
#X obj 276 280 lop~ 10;
#X obj 171 322 +~;
#X obj 236 371 delwrite~ mydelay 1000;
#X obj 173 394 *~;
#X obj 24 211 r Knob6 @hv_param;
#X obj 24 150 r Knob1 @hv_param;
#X obj 24 180 r Knob2 @hv_param;
#X obj 170 430 dac~;
#X obj 221 206 vd~ mydelay;
#X connect 0 0 1 0;
#X connect 0 0 8 0;
#X connect 3 0 4 0;
#X connect 4 0 15 0;
#X connect 5 0 8 1;
#X connect 7 0 5 1;
#X connect 8 0 9 0;
#X connect 8 0 10 0;
#X connect 10 0 14 0;
#X connect 11 0 10 1;
#X connect 12 0 3 0;
#X connect 13 0 7 0;
#X connect 15 0 5 0;
